<svg id="Layer_1" data-name="Layer 1" xmlns="http://www.w3.org/2000/svg" viewBox="0 0 30 30"><defs><style>.cls-1{fill:#05010f;}.cls-2{fill:#facc15;}</style></defs><rect class="cls-1" width="30" height="30" rx="3.28646"/><path class="cls-2" d="M7.96875,11.58984v8.78907H4.45313V11.58984H.9375L2.69531,8.07422h9.668l-1.75781,3.51562Z" transform="translate(0 0)"/><path class="cls-2" d="M15,8.07422V20.37891H11.48438V8.07422Z" transform="translate(0 0)"/><path class="cls-2" d="M20.27344,15.98438q-4.39454,0-4.39453-3.99024,0-3.91992,4.39453-3.91992H29.0625l-1.75781,3.51562H20.27344q-.87891,0-.87891.4043,0,.47461.87891.47461h2.63672q4.39452,0,4.39453,3.91992,0,3.99024-4.39453,3.99024H15l1.75781-3.51563h6.15235q.87889,0,.8789-.47461,0-.40429-.8789-.40429Z" transform="translate(0 0)"/></svg>